<svg xmlns="http://www.w3.org/2000/svg" version="1.1" xmlns:xlink="http://www.w3.org/1999/xlink" xmlns:svgjs="http://svgjs.com/svgjs" width="1440" height="560" preserveAspectRatio="none" viewBox="0 0 1440 560"><g mask="url(&quot;#SvgjsMask1000&quot;)" fill="none"><rect width="329.76" height="329.76" clip-path="url(&quot;#SvgjsClipPath1001&quot;)" x="-5.32" y="265.09" fill="url(#SvgjsPattern1002)" transform="rotate(322.14, 159.56, 429.97)"></rect><path d="M1221.11 501.36L1227.75 512.31 1218.52 521.2 1225.16 532.15 1215.94 541.03 1222.58 551.98 1213.35 560.86M1213.18 500.33L1219.81 511.28 1210.59 520.16 1217.23 531.11 1208 539.99 1214.64 550.94 1205.42 559.83M1205.24 499.3L1211.88 510.25 1202.66 519.13 1209.3 530.08 1200.07 538.96 1206.71 549.91 1197.48 558.79" stroke="rgba(111, 232, 119, 1)" stroke-width="2.43"></path><rect width="72" height="72" clip-path="url(&quot;#SvgjsClipPath1003&quot;)" x="476.61" y="62.38" fill="url(#SvgjsPattern1004)" transform="rotate(177.95, 512.61, 98.38)"></rect><rect width="137.8" height="137.8" clip-path="url(&quot;#SvgjsClipPath1005&quot;)" x="21.65" y="23.27" fill="url(#SvgjsPattern1006)" transform="rotate(114.58, 90.55, 92.17)"></rect><rect width="134" height="134" clip-path="url(&quot;#SvgjsClipPath1007&quot;)" x="381.82" y="-39.78" fill="url(#SvgjsPattern1008)" transform="rotate(41.93, 448.82, 27.22)"></rect><path d="M1292.18 265.44L1301.12 256.27 1312.03 262.98 1320.97 253.81 1331.88 260.53 1340.82 251.36 1351.73 258.07" stroke="rgba(111, 232, 119, 1)" stroke-width="1" stroke-dasharray="4, 4"></path><circle r="46.666666666666664" cx="119.23" cy="191.77" stroke="rgba(111, 232, 119, 1)" stroke-width="2.42"></circle><circle r="46.666666666666664" cx="1437.52" cy="275.82" stroke="rgba(239, 163, 163, 1)" stroke-width="1.7"></circle><rect width="139.60000000000002" height="139.60000000000002" clip-path="url(&quot;#SvgjsClipPath1009&quot;)" x="335.4" y="235.58" fill="url(#SvgjsPattern1010)" transform="rotate(61.61, 405.2, 305.38)"></rect><path d="M1389.66 286.02a5.6 5.6 0 1 0 3.4-10.68 5.6 5.6 0 1 0-3.4 10.68zM1394.52 270.77a5.6 5.6 0 1 0 3.39-10.67 5.6 5.6 0 1 0-3.39 10.67zM1399.37 255.53a5.6 5.6 0 1 0 3.4-10.68 5.6 5.6 0 1 0-3.4 10.68zM1404.23 240.28a5.6 5.6 0 1 0 3.4-10.67 5.6 5.6 0 1 0-3.4 10.67zM1395.19 321.36a5.6 5.6 0 1 0 3.4-10.67 5.6 5.6 0 1 0-3.4 10.67zM1400.05 306.12a5.6 5.6 0 1 0 3.4-10.67 5.6 5.6 0 1 0-3.4 10.67zM1404.9 290.87a5.6 5.6 0 1 0 3.4-10.67 5.6 5.6 0 1 0-3.4 10.67zM1409.76 275.63a5.6 5.6 0 1 0 3.4-10.67 5.6 5.6 0 1 0-3.4 10.67z" stroke="rgba(241, 225, 137, 1)" stroke-width="1" stroke-dasharray="4, 4"></path><rect width="158.39999999999998" height="158.39999999999998" clip-path="url(&quot;#SvgjsClipPath1011&quot;)" x="9.75" y="-68.52" fill="url(#SvgjsPattern1012)" transform="rotate(136.26, 88.95, 10.68)"></rect><path d="M824.85 408.64a5.6 5.6 0 1 0-1.27 11.13 5.6 5.6 0 1 0 1.27-11.13zM823.03 424.53a5.6 5.6 0 1 0-1.28 11.13 5.6 5.6 0 1 0 1.28-11.13zM821.21 440.43a5.6 5.6 0 1 0-1.28 11.13 5.6 5.6 0 1 0 1.28-11.13zM819.38 456.33a5.6 5.6 0 1 0-1.27 11.12 5.6 5.6 0 1 0 1.27-11.12zM812.6 375.02a5.6 5.6 0 1 0-1.28 11.13 5.6 5.6 0 1 0 1.28-11.13zM810.78 390.92a5.6 5.6 0 1 0-1.28 11.13 5.6 5.6 0 1 0 1.28-11.13zM808.96 406.82a5.6 5.6 0 1 0-1.28 11.12 5.6 5.6 0 1 0 1.28-11.12zM807.13 422.71a5.6 5.6 0 1 0-1.27 11.13 5.6 5.6 0 1 0 1.27-11.13z" fill="rgba(239, 163, 163, 1)"></path></g><defs><mask id="SvgjsMask1000"><rect width="1440" height="560" fill="#ffffff"></rect></mask><pattern x="0" y="0" width="13.74" height="13.74" patternUnits="userSpaceOnUse" id="SvgjsPattern1002"><path d="M0 13.74L6.87 0L13.74 13.74" stroke="rgba(111, 232, 119, 1)" fill="none"></path></pattern><clipPath id="SvgjsClipPath1001"><circle r="82.44" cx="159.56" cy="429.97"></circle></clipPath><pattern x="0" y="0" width="72" height="6" patternUnits="userSpaceOnUse" id="SvgjsPattern1004"><rect width="72" height="3" x="0" y="0" fill="rgba(111, 232, 119, 1)"></rect><rect width="72" height="3" x="0" y="3" fill="rgba(0, 0, 0, 0)"></rect></pattern><clipPath id="SvgjsClipPath1003"><circle r="18" cx="512.61" cy="98.38"></circle></clipPath><pattern x="0" y="0" width="137.8" height="13.78" patternUnits="userSpaceOnUse" id="SvgjsPattern1006"><rect width="137.8" height="6.89" x="0" y="0" fill="rgba(239, 163, 163, 1)"></rect><rect width="137.8" height="6.89" x="0" y="6.89" fill="rgba(0, 0, 0, 0)"></rect></pattern><clipPath id="SvgjsClipPath1005"><circle r="34.45" cx="90.55" cy="92.17"></circle></clipPath><pattern x="0" y="0" width="134" height="13.4" patternUnits="userSpaceOnUse" id="SvgjsPattern1008"><rect width="134" height="6.7" x="0" y="0" fill="rgba(239, 163, 163, 1)"></rect><rect width="134" height="6.7" x="0" y="6.7" fill="rgba(0, 0, 0, 0)"></rect></pattern><clipPath id="SvgjsClipPath1007"><circle r="33.5" cx="448.82" cy="27.22"></circle></clipPath><pattern x="0" y="0" width="6.98" height="6.98" patternUnits="userSpaceOnUse" id="SvgjsPattern1010"><path d="M0 6.98L3.49 0L6.98 6.98" stroke="rgba(239, 163, 163, 1)" fill="none"></path></pattern><clipPath id="SvgjsClipPath1009"><circle r="34.900000000000006" cx="405.2" cy="305.38"></circle></clipPath><pattern x="0" y="0" width="13.2" height="13.2" patternUnits="userSpaceOnUse" id="SvgjsPattern1012"><path d="M0 13.2L6.6 0L13.2 13.2" stroke="rgba(241, 225, 137, 1)" fill="none"></path></pattern><clipPath id="SvgjsClipPath1011"><circle r="39.599999999999994" cx="88.95" cy="10.68"></circle></clipPath></defs></svg>