<svg xmlns="http://www.w3.org/2000/svg" version="1.1" xmlns:xlink="http://www.w3.org/1999/xlink" xmlns:svgjs="http://svgjs.com/svgjs" width="1440" height="560" preserveAspectRatio="none" viewBox="0 0 1440 560"><g mask="url(&quot;#SvgjsMask1049&quot;)" fill="none"><path d="M532.29 24.73a5.6 5.6 0 1 0-4.89-10.07 5.6 5.6 0 1 0 4.89 10.07zM525.3 10.34a5.6 5.6 0 1 0-4.89-10.08 5.6 5.6 0 1 0 4.89 10.08zM518.32-4.06a5.6 5.6 0 1 0-4.89-10.07 5.6 5.6 0 1 0 4.89 10.07zM511.33-18.45a5.6 5.6 0 1 0-4.89-10.08 5.6 5.6 0 1 0 4.89 10.08z" fill="rgba(241, 225, 137, 1)"></path><circle r="66.39647582345536" cx="810.25" cy="157.47" stroke="rgba(239, 163, 163, 1)" stroke-width="2.88" stroke-dasharray="4, 4"></circle><rect width="264" height="264" clip-path="url(&quot;#SvgjsClipPath1050&quot;)" x="1234.67" y="424.54" fill="url(#SvgjsPattern1051)" transform="rotate(342.54, 1366.67, 556.54)"></rect><path d="M1423.3 342.4a5.6 5.6 0 1 0-11.15-1.06 5.6 5.6 0 1 0 11.15 1.06zM1407.37 340.88a5.6 5.6 0 1 0-11.15-1.06 5.6 5.6 0 1 0 11.15 1.06zM1391.44 339.37a5.6 5.6 0 1 0-11.15-1.06 5.6 5.6 0 1 0 11.15 1.06zM1375.51 337.86a5.6 5.6 0 1 0-11.15-1.06 5.6 5.6 0 1 0 11.15 1.06zM1456.67 329.5a5.6 5.6 0 1 0-11.15-1.06 5.6 5.6 0 1 0 11.15 1.06zM1440.74 327.98a5.6 5.6 0 1 0-11.15-1.06 5.6 5.6 0 1 0 11.15 1.06zM1424.81 326.47a5.6 5.6 0 1 0-11.15-1.06 5.6 5.6 0 1 0 11.15 1.06zM1408.88 324.96a5.6 5.6 0 1 0-11.15-1.06 5.6 5.6 0 1 0 11.15 1.06zM1490.04 316.6a5.6 5.6 0 1 0-11.15-1.06 5.6 5.6 0 1 0 11.15 1.06zM1474.11 315.08a5.6 5.6 0 1 0-11.15-1.06 5.6 5.6 0 1 0 11.15 1.06zM1458.18 313.57a5.6 5.6 0 1 0-11.15-1.06 5.6 5.6 0 1 0 11.15 1.06zM1442.25 312.06a5.6 5.6 0 1 0-11.15-1.06 5.6 5.6 0 1 0 11.15 1.06z" stroke="rgba(111, 232, 119, 1)" stroke-width="1" stroke-dasharray="2, 2"></path><circle r="46.666666666666664" cx="154.99" cy="13.44" fill="rgba(239, 163, 163, 1)"></circle><rect width="360" height="360" clip-path="url(&quot;#SvgjsClipPath1052&quot;)" x="1245.13" y="340.71" fill="url(#SvgjsPattern1053)" transform="rotate(106.05, 1425.13, 520.71)"></rect><rect width="285.04" height="285.04" clip-path="url(&quot;#SvgjsClipPath1054&quot;)" x="-121.74" y="-116.41" fill="url(#SvgjsPattern1055)" transform="rotate(301.18, 20.78, 26.11)"></rect><rect width="322.56" height="322.56" clip-path="url(&quot;#SvgjsClipPath1056&quot;)" x="977.55" y="-46.31" fill="url(#SvgjsPattern1057)" transform="rotate(83.78, 1138.83, 114.97)"></rect><rect width="120.32" height="120.32" clip-path="url(&quot;#SvgjsClipPath1058&quot;)" x="727.31" y="40.73" fill="url(#SvgjsPattern1059)" transform="rotate(77.04, 787.47, 100.89)"></rect><circle r="46.666666666666664" cx="322.61" cy="311.92" fill="rgba(239, 163, 163, 1)"></circle><rect width="331" height="331" clip-path="url(&quot;#SvgjsClipPath1060&quot;)" x="614.29" y="41.78" fill="url(#SvgjsPattern1061)" transform="rotate(238.51, 779.79, 207.28)"></rect><rect width="60" height="60" clip-path="url(&quot;#SvgjsClipPath1062&quot;)" x="1100.24" y="459.99" fill="url(#SvgjsPattern1063)" transform="rotate(4.95, 1130.24, 489.99)"></rect></g><defs><mask id="SvgjsMask1049"><rect width="1440" height="560" fill="#ffffff"></rect></mask><pattern x="0" y="0" width="264" height="6" patternUnits="userSpaceOnUse" id="SvgjsPattern1051"><rect width="264" height="3" x="0" y="0" fill="rgba(111, 232, 119, 1)"></rect><rect width="264" height="3" x="0" y="3" fill="rgba(0, 0, 0, 0)"></rect></pattern><clipPath id="SvgjsClipPath1050"><circle r="66" cx="1366.67" cy="556.54"></circle></clipPath><pattern x="0" y="0" width="6" height="6" patternUnits="userSpaceOnUse" id="SvgjsPattern1053"><path d="M0 6L3 0L6 6" stroke="rgba(239, 163, 163, 1)" fill="none"></path></pattern><clipPath id="SvgjsClipPath1052"><circle r="90" cx="1425.13" cy="520.71"></circle></clipPath><pattern x="0" y="0" width="10.18" height="10.18" patternUnits="userSpaceOnUse" id="SvgjsPattern1055"><path d="M5.09 1L5.09 9.18M1 5.09L9.18 5.09" stroke="rgba(111, 232, 119, 1)" fill="none" stroke-width="1.61"></path></pattern><clipPath id="SvgjsClipPath1054"><circle r="71.26" cx="20.78" cy="26.11"></circle></clipPath><pattern x="0" y="0" width="6.72" height="6.72" patternUnits="userSpaceOnUse" id="SvgjsPattern1057"><path d="M0 6.72L3.36 0L6.72 6.72" stroke="rgba(241, 225, 137, 1)" fill="none"></path></pattern><clipPath id="SvgjsClipPath1056"><circle r="80.64" cx="1138.83" cy="114.97"></circle></clipPath><pattern x="0" y="0" width="7.52" height="7.52" patternUnits="userSpaceOnUse" id="SvgjsPattern1059"><path d="M0 7.52L3.76 0L7.52 7.52" stroke="rgba(241, 225, 137, 1)" fill="none"></path></pattern><clipPath id="SvgjsClipPath1058"><circle r="30.08" cx="787.47" cy="100.89"></circle></clipPath><pattern x="0" y="0" width="331" height="6.62" patternUnits="userSpaceOnUse" id="SvgjsPattern1061"><rect width="331" height="3.31" x="0" y="0" fill="rgba(239, 163, 163, 1)"></rect><rect width="331" height="3.31" x="0" y="3.31" fill="rgba(0, 0, 0, 0)"></rect></pattern><clipPath id="SvgjsClipPath1060"><circle r="82.75" cx="779.79" cy="207.28"></circle></clipPath><pattern x="0" y="0" width="60" height="6" patternUnits="userSpaceOnUse" id="SvgjsPattern1063"><rect width="60" height="3" x="0" y="0" fill="rgba(241, 225, 137, 1)"></rect><rect width="60" height="3" x="0" y="3" fill="rgba(0, 0, 0, 0)"></rect></pattern><clipPath id="SvgjsClipPath1062"><circle r="15" cx="1130.24" cy="489.99"></circle></clipPath></defs></svg>